# xmcd
# Copyright (C) 1995-1998 Ti Kan
#
# Track frame offsets:
#       150
#       15705
#       30662
#       47305
#       62116
#       76176
#       92623
#       107565
#       123168
#       136430
#       152786
#       167261
#       181234
#
# Disc length: 2609 seconds
#
# Revision: 0
# Processed by: cddbd v1.5.2PL0 Copyright (c) Steve Scherf et al.
# Submitted via: CD-Transfer v1.0
#
DISCID=910a2f0d
DTITLE=Armin Stöckl - 
DYEAR=1900
DGENRE=
TTITLE0=Lass Dich Von Der Sonne Streicheln
TTITLE1=Andalusisches Mädchen
TTITLE2=Unsre Welt Braucht Liebe
TTITLE3=Schenk Mir Noch Eine Sommernacht
TTITLE4=Flammen Der Liebe
TTITLE5=Madonna Blue
TTITLE6=Du Bist Ein Zeichen Des Himmels
TTITLE7=Bleib Bei Mir Maria
TTITLE8=Heut Ist Party
TTITLE9=Du Bist Ein Kleines Wunder
TTITLE10=Ich Such Ein Mädchen
TTITLE11=Lass Uns Träumen
TTITLE12=In Memoriam Of Elvis Presley
EXTD=
EXTT0=
EXTT1=
EXTT2=
EXTT3=
EXTT4=
EXTT5=
EXTT6=
EXTT7=
EXTT8=
EXTT9=
EXTT10=
EXTT11=
EXTT12=
PLAYORDER=
